<?xml version="1.0" encoding="UTF-8" standalone="no"?>
<svg
   xmlns:dc="http://purl.org/dc/elements/1.1/"
   xmlns:cc="http://creativecommons.org/ns#"
   xmlns:rdf="http://www.w3.org/1999/02/22-rdf-syntax-ns#"
   xmlns:svg="http://www.w3.org/2000/svg"
   xmlns="http://www.w3.org/2000/svg"
   viewBox="0 0 585.33331 1025.0133"
   height="1025.0133"
   width="585.33331"
   xml:space="preserve"
   id="svg2"
   version="1.1"><metadata
     id="metadata8"><rdf:RDF><cc:Work
         rdf:about=""><dc:format>image/svg+xml</dc:format><dc:type
           rdf:resource="http://purl.org/dc/dcmitype/StillImage" /></cc:Work></rdf:RDF></metadata><defs
     id="defs6"><clipPath
       id="clipPath22"
       clipPathUnits="userSpaceOnUse"><path
         id="path20"
         d="M -3.7,-3.7 H 442.7 V 772.46 H -3.7 Z" /></clipPath><clipPath
       id="clipPath32"
       clipPathUnits="userSpaceOnUse"><path
         id="path30"
         d="M -3.7,-3.7 H 442.7 V 772.46 H -3.7 Z" /></clipPath><clipPath
       id="clipPath42"
       clipPathUnits="userSpaceOnUse"><path
         id="path40"
         d="M -3.7,-3.7 H 442.7 V 772.46 H -3.7 Z" /></clipPath><clipPath
       id="clipPath52"
       clipPathUnits="userSpaceOnUse"><path
         id="path50"
         d="M -3.7,-3.7 H 442.7 V 772.46 H -3.7 Z" /></clipPath><clipPath
       id="clipPath62"
       clipPathUnits="userSpaceOnUse"><path
         id="path60"
         d="M -3.7,-3.7 H 442.7 V 772.46 H -3.7 Z" /></clipPath><clipPath
       id="clipPath72"
       clipPathUnits="userSpaceOnUse"><path
         id="path70"
         d="M -3.7,-3.7 H 442.7 V 772.46 H -3.7 Z" /></clipPath><clipPath
       id="clipPath82"
       clipPathUnits="userSpaceOnUse"><path
         id="path80"
         d="M -3.7,-3.7 H 442.7 V 772.46 H -3.7 Z" /></clipPath><clipPath
       id="clipPath92"
       clipPathUnits="userSpaceOnUse"><path
         id="path90"
         d="M -3.7,-3.7 H 442.7 V 772.46 H -3.7 Z" /></clipPath><clipPath
       id="clipPath102"
       clipPathUnits="userSpaceOnUse"><path
         id="path100"
         d="M -3.7,-3.7 H 442.7 V 772.46 H -3.7 Z" /></clipPath><clipPath
       id="clipPath112"
       clipPathUnits="userSpaceOnUse"><path
         id="path110"
         d="M -3.7,-3.7 H 442.7 V 772.46 H -3.7 Z" /></clipPath><clipPath
       id="clipPath122"
       clipPathUnits="userSpaceOnUse"><path
         id="path120"
         d="M -3.7,-3.7 H 442.7 V 772.46 H -3.7 Z" /></clipPath><clipPath
       id="clipPath132"
       clipPathUnits="userSpaceOnUse"><path
         id="path130"
         d="M -3.7,-3.7 H 442.7 V 772.46 H -3.7 Z" /></clipPath><clipPath
       id="clipPath142"
       clipPathUnits="userSpaceOnUse"><path
         id="path140"
         d="M -3.7,-3.7 H 442.7 V 772.46 H -3.7 Z" /></clipPath><clipPath
       id="clipPath152"
       clipPathUnits="userSpaceOnUse"><path
         id="path150"
         d="M -3.7,-3.7 H 442.7 V 772.46 H -3.7 Z" /></clipPath><clipPath
       id="clipPath162"
       clipPathUnits="userSpaceOnUse"><path
         id="path160"
         d="M -3.7,-3.7 H 442.7 V 772.46 H -3.7 Z" /></clipPath><clipPath
       id="clipPath172"
       clipPathUnits="userSpaceOnUse"><path
         id="path170"
         d="M -3.7,-3.7 H 442.7 V 772.46 H -3.7 Z" /></clipPath><clipPath
       id="clipPath182"
       clipPathUnits="userSpaceOnUse"><path
         id="path180"
         d="M -3.7,-3.7 H 442.7 V 772.46 H -3.7 Z" /></clipPath><clipPath
       id="clipPath192"
       clipPathUnits="userSpaceOnUse"><path
         id="path190"
         d="M -3.7,-3.7 H 442.7 V 772.46 H -3.7 Z" /></clipPath><clipPath
       id="clipPath202"
       clipPathUnits="userSpaceOnUse"><path
         id="path200"
         d="M -3.7,-3.7 H 442.7 V 772.46 H -3.7 Z" /></clipPath><clipPath
       id="clipPath212"
       clipPathUnits="userSpaceOnUse"><path
         id="path210"
         d="M -3.7,-3.7 H 442.7 V 772.46 H -3.7 Z" /></clipPath><clipPath
       id="clipPath222"
       clipPathUnits="userSpaceOnUse"><path
         id="path220"
         d="M -3.7,-3.7 H 442.7 V 772.46 H -3.7 Z" /></clipPath><clipPath
       id="clipPath232"
       clipPathUnits="userSpaceOnUse"><path
         id="path230"
         d="M -3.7,-3.7 H 442.7 V 772.46 H -3.7 Z" /></clipPath><clipPath
       id="clipPath242"
       clipPathUnits="userSpaceOnUse"><path
         id="path240"
         d="M -3.7,-3.7 H 442.7 V 772.46 H -3.7 Z" /></clipPath><clipPath
       id="clipPath252"
       clipPathUnits="userSpaceOnUse"><path
         id="path250"
         d="M -3.7,-3.7 H 442.7 V 772.46 H -3.7 Z" /></clipPath><clipPath
       id="clipPath262"
       clipPathUnits="userSpaceOnUse"><path
         id="path260"
         d="M -3.7,-3.7 H 442.7 V 772.46 H -3.7 Z" /></clipPath><clipPath
       id="clipPath272"
       clipPathUnits="userSpaceOnUse"><path
         id="path270"
         d="M -3.7,-3.7 H 442.7 V 772.46 H -3.7 Z" /></clipPath><clipPath
       id="clipPath282"
       clipPathUnits="userSpaceOnUse"><path
         id="path280"
         d="M -3.7,-3.7 H 442.7 V 772.46 H -3.7 Z" /></clipPath><clipPath
       id="clipPath292"
       clipPathUnits="userSpaceOnUse"><path
         id="path290"
         d="M -3.7,-3.7 H 442.7 V 772.46 H -3.7 Z" /></clipPath><clipPath
       id="clipPath302"
       clipPathUnits="userSpaceOnUse"><path
         id="path300"
         d="M -3.7,-3.7 H 442.7 V 772.46 H -3.7 Z" /></clipPath><clipPath
       id="clipPath312"
       clipPathUnits="userSpaceOnUse"><path
         id="path310"
         d="M -3.7,-3.7 H 442.7 V 772.46 H -3.7 Z" /></clipPath><clipPath
       id="clipPath322"
       clipPathUnits="userSpaceOnUse"><path
         id="path320"
         d="M -3.7,-3.7 H 442.7 V 772.46 H -3.7 Z" /></clipPath><clipPath
       id="clipPath332"
       clipPathUnits="userSpaceOnUse"><path
         id="path330"
         d="M -3.7,-3.7 H 442.7 V 772.46 H -3.7 Z" /></clipPath><clipPath
       id="clipPath342"
       clipPathUnits="userSpaceOnUse"><path
         id="path340"
         d="M -3.7,-3.7 H 442.7 V 772.46 H -3.7 Z" /></clipPath><clipPath
       id="clipPath352"
       clipPathUnits="userSpaceOnUse"><path
         id="path350"
         d="M -3.7,-3.7 H 442.7 V 772.46 H -3.7 Z" /></clipPath><clipPath
       id="clipPath362"
       clipPathUnits="userSpaceOnUse"><path
         id="path360"
         d="M -3.7,-3.7 H 442.7 V 772.46 H -3.7 Z" /></clipPath><clipPath
       id="clipPath372"
       clipPathUnits="userSpaceOnUse"><path
         id="path370"
         d="M -3.7,-3.7 H 442.7 V 772.46 H -3.7 Z" /></clipPath><clipPath
       id="clipPath382"
       clipPathUnits="userSpaceOnUse"><path
         id="path380"
         d="M -3.7,-3.7 H 442.7 V 772.46 H -3.7 Z" /></clipPath><clipPath
       id="clipPath392"
       clipPathUnits="userSpaceOnUse"><path
         id="path390"
         d="M -3.7,-3.7 H 442.7 V 772.46 H -3.7 Z" /></clipPath><clipPath
       id="clipPath402"
       clipPathUnits="userSpaceOnUse"><path
         id="path400"
         d="M -3.7,-3.7 H 442.7 V 772.46 H -3.7 Z" /></clipPath><clipPath
       id="clipPath412"
       clipPathUnits="userSpaceOnUse"><path
         id="path410"
         d="M -3.7,-3.7 H 442.7 V 772.46 H -3.7 Z" /></clipPath><clipPath
       id="clipPath422"
       clipPathUnits="userSpaceOnUse"><path
         id="path420"
         d="M -3.7,-3.7 H 442.7 V 772.46 H -3.7 Z" /></clipPath><clipPath
       id="clipPath432"
       clipPathUnits="userSpaceOnUse"><path
         id="path430"
         d="M -3.7,-3.7 H 442.7 V 772.46 H -3.7 Z" /></clipPath><clipPath
       id="clipPath442"
       clipPathUnits="userSpaceOnUse"><path
         id="path440"
         d="M -3.7,-3.7 H 442.7 V 772.46 H -3.7 Z" /></clipPath><clipPath
       id="clipPath452"
       clipPathUnits="userSpaceOnUse"><path
         id="path450"
         d="M -3.7,-3.7 H 442.7 V 772.46 H -3.7 Z" /></clipPath><clipPath
       id="clipPath462"
       clipPathUnits="userSpaceOnUse"><path
         id="path460"
         d="M -3.7,-3.7 H 442.7 V 772.46 H -3.7 Z" /></clipPath><clipPath
       id="clipPath472"
       clipPathUnits="userSpaceOnUse"><path
         id="path470"
         d="M -3.7,-3.7 H 442.7 V 772.46 H -3.7 Z" /></clipPath><clipPath
       id="clipPath482"
       clipPathUnits="userSpaceOnUse"><path
         id="path480"
         d="M -3.7,-3.7 H 442.7 V 772.46 H -3.7 Z" /></clipPath><clipPath
       id="clipPath492"
       clipPathUnits="userSpaceOnUse"><path
         id="path490"
         d="M -3.7,-3.7 H 442.7 V 772.46 H -3.7 Z" /></clipPath><clipPath
       id="clipPath502"
       clipPathUnits="userSpaceOnUse"><path
         id="path500"
         d="M -3.7,-3.7 H 442.7 V 772.46 H -3.7 Z" /></clipPath><clipPath
       id="clipPath512"
       clipPathUnits="userSpaceOnUse"><path
         id="path510"
         d="M -3.7,-3.7 H 442.7 V 772.46 H -3.7 Z" /></clipPath><clipPath
       id="clipPath522"
       clipPathUnits="userSpaceOnUse"><path
         id="path520"
         d="M -3.7,-3.7 H 442.7 V 772.46 H -3.7 Z" /></clipPath><clipPath
       id="clipPath532"
       clipPathUnits="userSpaceOnUse"><path
         id="path530"
         d="M -3.7,-3.7 H 442.7 V 772.46 H -3.7 Z" /></clipPath><clipPath
       id="clipPath542"
       clipPathUnits="userSpaceOnUse"><path
         id="path540"
         d="M -3.7,-3.7 H 442.7 V 772.46 H -3.7 Z" /></clipPath><clipPath
       id="clipPath552"
       clipPathUnits="userSpaceOnUse"><path
         id="path550"
         d="M -3.7,-3.7 H 442.7 V 772.46 H -3.7 Z" /></clipPath><clipPath
       id="clipPath562"
       clipPathUnits="userSpaceOnUse"><path
         id="path560"
         d="M -3.7,-3.7 H 442.7 V 772.46 H -3.7 Z" /></clipPath><clipPath
       id="clipPath572"
       clipPathUnits="userSpaceOnUse"><path
         id="path570"
         d="M -3.7,-3.7 H 442.7 V 772.46 H -3.7 Z" /></clipPath><clipPath
       id="clipPath582"
       clipPathUnits="userSpaceOnUse"><path
         id="path580"
         d="M -3.7,-3.7 H 442.7 V 772.46 H -3.7 Z" /></clipPath><clipPath
       id="clipPath592"
       clipPathUnits="userSpaceOnUse"><path
         id="path590"
         d="M -3.7,-3.7 H 442.7 V 772.46 H -3.7 Z" /></clipPath><clipPath
       id="clipPath602"
       clipPathUnits="userSpaceOnUse"><path
         id="path600"
         d="M -3.7,-3.7 H 442.7 V 772.46 H -3.7 Z" /></clipPath><clipPath
       id="clipPath612"
       clipPathUnits="userSpaceOnUse"><path
         id="path610"
         d="M -3.7,-3.7 H 442.7 V 772.46 H -3.7 Z" /></clipPath><clipPath
       id="clipPath622"
       clipPathUnits="userSpaceOnUse"><path
         id="path620"
         d="M -3.7,-3.7 H 442.7 V 772.46 H -3.7 Z" /></clipPath><clipPath
       id="clipPath632"
       clipPathUnits="userSpaceOnUse"><path
         id="path630"
         d="M -3.7,-3.7 H 442.7 V 772.46 H -3.7 Z" /></clipPath><clipPath
       id="clipPath642"
       clipPathUnits="userSpaceOnUse"><path
         id="path640"
         d="M -3.7,-3.7 H 442.7 V 772.46 H -3.7 Z" /></clipPath><clipPath
       id="clipPath652"
       clipPathUnits="userSpaceOnUse"><path
         id="path650"
         d="M -3.7,-3.7 H 442.7 V 772.46 H -3.7 Z" /></clipPath><clipPath
       id="clipPath662"
       clipPathUnits="userSpaceOnUse"><path
         id="path660"
         d="M -3.7,-3.7 H 442.7 V 772.46 H -3.7 Z" /></clipPath><clipPath
       id="clipPath672"
       clipPathUnits="userSpaceOnUse"><path
         id="path670"
         d="M -3.7,-3.7 H 442.7 V 772.46 H -3.7 Z" /></clipPath><clipPath
       id="clipPath682"
       clipPathUnits="userSpaceOnUse"><path
         id="path680"
         d="M -3.7,-3.7 H 442.7 V 772.46 H -3.7 Z" /></clipPath><clipPath
       id="clipPath692"
       clipPathUnits="userSpaceOnUse"><path
         id="path690"
         d="M -3.7,-3.7 H 442.7 V 772.46 H -3.7 Z" /></clipPath><clipPath
       id="clipPath702"
       clipPathUnits="userSpaceOnUse"><path
         id="path700"
         d="M -3.7,-3.7 H 442.7 V 772.46 H -3.7 Z" /></clipPath><clipPath
       id="clipPath712"
       clipPathUnits="userSpaceOnUse"><path
         id="path710"
         d="M -3.7,-3.7 H 442.7 V 772.46 H -3.7 Z" /></clipPath><clipPath
       id="clipPath722"
       clipPathUnits="userSpaceOnUse"><path
         id="path720"
         d="M -3.7,-3.7 H 442.7 V 772.46 H -3.7 Z" /></clipPath><clipPath
       id="clipPath732"
       clipPathUnits="userSpaceOnUse"><path
         id="path730"
         d="M -3.7,-3.7 H 442.7 V 772.46 H -3.7 Z" /></clipPath><clipPath
       id="clipPath742"
       clipPathUnits="userSpaceOnUse"><path
         id="path740"
         d="M -3.7,-3.7 H 442.7 V 772.46 H -3.7 Z" /></clipPath><clipPath
       id="clipPath752"
       clipPathUnits="userSpaceOnUse"><path
         id="path750"
         d="M -3.7,-3.7 H 442.7 V 772.46 H -3.7 Z" /></clipPath><clipPath
       id="clipPath762"
       clipPathUnits="userSpaceOnUse"><path
         id="path760"
         d="M -3.7,-3.7 H 442.7 V 772.46 H -3.7 Z" /></clipPath><clipPath
       id="clipPath772"
       clipPathUnits="userSpaceOnUse"><path
         id="path770"
         d="M -3.7,-3.7 H 442.7 V 772.46 H -3.7 Z" /></clipPath><clipPath
       id="clipPath782"
       clipPathUnits="userSpaceOnUse"><path
         id="path780"
         d="M -3.7,-3.7 H 442.7 V 772.46 H -3.7 Z" /></clipPath><clipPath
       id="clipPath792"
       clipPathUnits="userSpaceOnUse"><path
         id="path790"
         d="M -3.7,-3.7 H 442.7 V 772.46 H -3.7 Z" /></clipPath><clipPath
       id="clipPath802"
       clipPathUnits="userSpaceOnUse"><path
         id="path800"
         d="M -3.7,-3.7 H 442.7 V 772.46 H -3.7 Z" /></clipPath><clipPath
       id="clipPath812"
       clipPathUnits="userSpaceOnUse"><path
         id="path810"
         d="M -3.7,-3.7 H 442.7 V 772.46 H -3.7 Z" /></clipPath></defs><g
     transform="matrix(1.3333333,0,0,-1.3333333,0,1025.0133)"
     id="g10"><path
       id="path12"
       style="fill:#ffffff;fill-opacity:1;fill-rule:nonzero;stroke:none"
       d="M 0,0 H 439 V 768.76 H 0 Z" /><path
       id="path14"
       style="fill:#111c2e;fill-opacity:1;fill-rule:nonzero;stroke:none"
       d="M -3.7,-3.7 H 442.7 V 772.46 H -3.7 Z" /><g
       id="g16"><g
         clip-path="url(#clipPath22)"
         id="g18"><path
           id="path24"
           style="fill:none;stroke:#e8d536;stroke-width:9.03526115;stroke-linecap:butt;stroke-linejoin:round;stroke-miterlimit:10;stroke-dasharray:none;stroke-opacity:0.61938979"
           d="m -211.99179,-1824.7342 c 323.98445,0 634.74296,128.7204 863.83456,357.812 229.0916,229.0916 357.81203,539.85007 357.81203,863.83452 0,323.98446 -128.72043,634.74296 -357.81203,863.83456 -229.0916,229.09161 -539.85011,357.81199 -863.83456,357.81199 -323.98445,0 -634.74295,-128.72038 -863.83451,-357.81199 -229.0917,-229.0916 -357.812,-539.8501 -357.812,-863.83456 0,-323.98445 128.7203,-634.74292 357.812,-863.83452 229.09156,-229.0916 539.85006,-357.812 863.83451,-357.812 z" /></g></g><g
       id="g26"><g
         clip-path="url(#clipPath32)"
         id="g28"><path
           id="path34"
           style="fill:none;stroke:#4ec491;stroke-width:8.51326084;stroke-linecap:butt;stroke-linejoin:round;stroke-miterlimit:10;stroke-dasharray:none;stroke-opacity:1"
           d="m -235.1211,109.92531 c 358.68455,0 702.7266,142.50688 956.35488,396.13516 253.62828,253.62828 396.13512,597.67033 396.13512,956.35493 0,358.6845 -142.50684,702.7266 -396.13512,956.3548 -253.62828,253.6283 -597.67033,396.1352 -956.35488,396.1352 -358.68455,0 -702.7266,-142.5069 -956.3549,-396.1352 -253.6283,-253.6282 -396.1351,-597.6703 -396.1351,-956.3548 0,-358.6846 142.5068,-702.72665 396.1351,-956.35493 253.6283,-253.62828 597.67035,-396.13516 956.3549,-396.13516 z" /></g></g><g
       id="g36"><g
         clip-path="url(#clipPath42)"
         id="g38"><path
           id="path44"
           style="fill:none;stroke:#1bd0d9;stroke-width:9.78085423;stroke-linecap:butt;stroke-linejoin:round;stroke-miterlimit:10;stroke-dasharray:none;stroke-opacity:1"
           d="m 805.99,-1387.95 c 238.8551,0 467.9594,94.8981 636.8554,263.7942 168.896,168.89599 263.7942,398.00032 263.7942,636.85537 0,238.85506 -94.8982,467.959382 -263.7942,636.85541 -168.896,168.89603 -398.0003,263.79415 -636.8554,263.79415 -238.85506,0 -467.95938,-94.89812 -636.85541,-263.79415 C 0.23856,-19.341048 -94.659559,-248.44537 -94.659559,-487.30043 c 0,-238.85505 94.898119,-467.95938 263.794149,-636.85537 C 338.03062,-1293.0519 567.13494,-1387.95 805.99,-1387.95 Z" /></g></g><g
       id="g46"><g
         clip-path="url(#clipPath52)"
         id="g48"><path
           id="path54"
           style="fill:none;stroke:#63f634;stroke-width:4.58990717;stroke-linecap:butt;stroke-linejoin:round;stroke-miterlimit:10;stroke-dasharray:none;stroke-opacity:0.22053725"
           d="m -198.76438,-205.43843 c 383.79542,0 751.92326,152.483546 1023.30761,423.8679 271.38437,271.38435 423.86787,639.51218 423.86787,1023.30763 0,383.7954 -152.4835,751.9232 -423.86787,1023.3076 -271.38435,271.3843 -639.51219,423.8679 -1023.30761,423.8679 -383.79543,0 -751.92327,-152.4836 -1023.30762,-423.8679 -271.3843,-271.3844 -423.8679,-639.5122 -423.8679,-1023.3076 0,-383.79545 152.4836,-751.92328 423.8679,-1023.30763 271.38435,-271.384354 639.51219,-423.8679 1023.30762,-423.8679 z" /></g></g><g
       id="g56"><g
         clip-path="url(#clipPath62)"
         id="g58"><path
           id="path64"
           style="fill:none;stroke:#5809fb;stroke-width:10.66374683;stroke-linecap:butt;stroke-linejoin:round;stroke-miterlimit:10;stroke-dasharray:none;stroke-opacity:1"
           d="m -305.39905,284.75099 c 266.825291,0 522.75803,106.01081 711.432,294.68478 188.67397,188.67397 294.68478,444.60673 294.68478,711.43203 0,266.8253 -106.01081,522.758 -294.68478,711.432 -188.67397,188.6739 -444.606709,294.6848 -711.432,294.6848 -266.82529,0 -522.75802,-106.0109 -711.43195,-294.6848 -188.674,-188.674 -294.6848,-444.6067 -294.6848,-711.432 0,-266.8253 106.0108,-522.75806 294.6848,-711.43203 188.67393,-188.67397 444.60666,-294.68478 711.43195,-294.68478 z" /></g></g><g
       id="g66"><g
         clip-path="url(#clipPath72)"
         id="g68"><path
           id="path74"
           style="fill:none;stroke:#565fc6;stroke-width:10.3638382;stroke-linecap:butt;stroke-linejoin:round;stroke-miterlimit:10;stroke-dasharray:none;stroke-opacity:0.03512681"
           d="m 857.66995,-1058.5399 c 251.66945,0 493.06505,99.98929 671.02225,277.94647 177.9572,177.95718 277.9465,419.35278 277.9465,671.02223 0,251.66946 -99.9893,493.06506 -277.9465,671.02224 -177.9572,177.95717 -419.3528,277.94651 -671.02225,277.94651 -251.66945,0 -493.06506,-99.98934 -671.02223,-277.94651 C 8.69054,383.49386 -91.298793,142.09826 -91.298793,-109.5712 c 0,-251.66945 99.989333,-493.06505 277.946513,-671.02223 177.95717,-177.95718 419.35278,-277.94647 671.02223,-277.94647 z" /></g></g><g
       id="g76"><g
         clip-path="url(#clipPath82)"
         id="g78"><path
           id="path84"
           style="fill:none;stroke:#f4311a;stroke-width:4.89898634;stroke-linecap:butt;stroke-linejoin:round;stroke-miterlimit:10;stroke-dasharray:none;stroke-opacity:1"
           d="m -192.71157,-1680.5848 c 385.10979,0 754.49832,153.0058 1026.81206,425.3195 272.31371,272.31377 425.31951,641.7023 425.31951,1026.81209 0,385.10978 -153.0058,754.49832 -425.31951,1026.81206 -272.31374,272.31375 -641.70227,425.31945 -1026.81206,425.31945 -385.10978,0 -754.49832,-153.0057 -1026.81203,-425.31945 -272.3138,-272.31374 -425.3195,-641.70228 -425.3195,-1026.81206 0,-385.10979 153.0057,-754.49832 425.3195,-1026.81209 272.31371,-272.3137 641.70225,-425.3195 1026.81203,-425.3195 z" /></g></g><g
       id="g86"><g
         clip-path="url(#clipPath92)"
         id="g88"><path
           id="path94"
           style="fill:none;stroke:#a1ce14;stroke-width:8.11202908;stroke-linecap:butt;stroke-linejoin:round;stroke-miterlimit:10;stroke-dasharray:none;stroke-opacity:0.21212583"
           d="m -91.827225,-233.19823 c 372.503935,0 729.801225,147.997384 993.201285,411.39744 263.40004,263.40007 411.39744,620.69736 411.39744,993.20129 0,372.5039 -147.9974,729.8012 -411.39744,993.2013 -263.40006,263.4001 -620.69735,411.3974 -993.201285,411.3974 -372.503935,0 -729.801225,-147.9973 -993.201275,-411.3974 -263.4001,-263.4001 -411.3975,-620.6974 -411.3975,-993.2013 0,-372.50393 147.9974,-729.80122 411.3975,-993.20129 263.40005,-263.400056 620.69734,-411.39744 993.201275,-411.39744 z" /></g></g><g
       id="g96"><g
         clip-path="url(#clipPath102)"
         id="g98"><path
           id="path104"
           style="fill:none;stroke:#9503dd;stroke-width:10.10066891;stroke-linecap:butt;stroke-linejoin:round;stroke-miterlimit:10;stroke-dasharray:none;stroke-opacity:0.44348904"
           d="m -11.541353,94.593837 c 230.006233,0 450.622973,91.382443 613.261933,254.021413 162.63897,162.63896 254.02141,383.2557 254.02141,613.26193 0,230.00622 -91.38244,450.62302 -254.02141,613.26192 -162.63896,162.639 -383.2557,254.0214 -613.261933,254.0214 -230.006227,0 -450.622967,-91.3824 -613.261937,-254.0214 -162.63897,-162.6389 -254.02141,-383.2557 -254.02141,-613.26192 0,-230.00623 91.38244,-450.62297 254.02141,-613.26193 C -462.16432,185.97628 -241.54758,94.593837 -11.541353,94.593837 Z" /></g></g><g
       id="g106"><g
         clip-path="url(#clipPath112)"
         id="g108"><path
           id="path114"
           style="fill:none;stroke:#4695c6;stroke-width:6.05956364;stroke-linecap:butt;stroke-linejoin:round;stroke-miterlimit:10;stroke-dasharray:none;stroke-opacity:0.18117574"
           d="m -181.93053,352.79593 c 267.775253,0 524.61918,106.38823 713.96487,295.73393 189.3457,189.3457 295.73394,446.18964 295.73394,713.96484 0,267.7753 -106.38824,524.6192 -295.73394,713.9649 -189.34569,189.3457 -446.189617,295.7339 -713.96487,295.7339 -267.77525,0 -524.61918,-106.3882 -713.96487,-295.7339 -189.3457,-189.3457 -295.7339,-446.1896 -295.7339,-713.9649 0,-267.7752 106.3882,-524.61914 295.7339,-713.96484 189.34569,-189.3457 446.18962,-295.73393 713.96487,-295.73393 z" /></g></g><g
       id="g116"><g
         clip-path="url(#clipPath122)"
         id="g118"><path
           id="path124"
           style="fill:none;stroke:#9dba2c;stroke-width:11.40137386;stroke-linecap:butt;stroke-linejoin:round;stroke-miterlimit:10;stroke-dasharray:none;stroke-opacity:0.54366653"
           d="m 730.01047,199.3599 c 223.12649,0 437.14433,88.64909 594.91853,246.42334 157.7743,157.77425 246.4234,371.7921 246.4234,594.91856 0,223.1265 -88.6491,437.1443 -246.4234,594.9186 -157.7742,157.7742 -371.79204,246.4233 -594.91853,246.4233 -223.12648,0 -437.14432,-88.6491 -594.91857,-246.4233 -157.77425,-157.7743 -246.42334,-371.7921 -246.42334,-594.9186 0,-223.12646 88.64909,-437.14431 246.42334,-594.91856 C 292.86615,288.00899 506.88399,199.3599 730.01047,199.3599 Z" /></g></g><g
       id="g126"><g
         clip-path="url(#clipPath132)"
         id="g128"><path
           id="path134"
           style="fill:none;stroke:#fa0e6f;stroke-width:7.33206463;stroke-linecap:butt;stroke-linejoin:round;stroke-miterlimit:10;stroke-dasharray:none;stroke-opacity:1"
           d="m -283.71843,78.578614 c 219.939197,0 430.89987,87.382766 586.42037,242.903266 155.5205,155.5205 242.90327,366.48117 242.90327,586.42038 0,219.93924 -87.38277,430.89984 -242.90327,586.42034 -155.5205,155.5205 -366.481173,242.9033 -586.42037,242.9033 -219.9392,0 -430.89988,-87.3828 -586.42038,-242.9033 -155.52049,-155.5205 -242.90329,-366.4811 -242.90329,-586.42034 0,-219.93921 87.3828,-430.89988 242.90329,-586.42038 155.5205,-155.5205 366.48118,-242.903266 586.42038,-242.903266 z" /></g></g><g
       id="g136"><g
         clip-path="url(#clipPath142)"
         id="g138"><path
           id="path144"
           style="fill:none;stroke:#9d36d4;stroke-width:5.15841532;stroke-linecap:butt;stroke-linejoin:round;stroke-miterlimit:10;stroke-dasharray:none;stroke-opacity:0.02213398"
           d="m -8.797121,-25.976524 c 350.735431,0 687.152861,139.348664 935.160261,387.356064 248.00736,248.0074 387.35606,584.42483 387.35606,935.16026 0,350.7354 -139.3487,687.1529 -387.35606,935.1603 -248.0074,248.0073 -584.42483,387.356 -935.160261,387.356 -350.735429,0 -687.152859,-139.3487 -935.160259,-387.356 -248.00742,-248.0074 -387.35602,-584.4249 -387.35602,-935.1603 0,-350.73543 139.3486,-687.15286 387.35602,-935.16026 248.0074,-248.0074 584.42483,-387.356064 935.160259,-387.356064 z" /></g></g><g
       id="g146"><g
         clip-path="url(#clipPath152)"
         id="g148"><path
           id="path154"
           style="fill:none;stroke:#cbad26;stroke-width:9.27592945;stroke-linecap:butt;stroke-linejoin:round;stroke-miterlimit:10;stroke-dasharray:none;stroke-opacity:0.9116935"
           d="m 727.03404,113.40606 c 230.18622,0 450.97556,91.45396 613.74186,254.22019 162.7662,162.76624 254.2202,383.55562 254.2202,613.74184 0,230.18621 -91.454,450.97561 -254.2202,613.74181 -162.7663,162.7663 -383.55564,254.2202 -613.74186,254.2202 -230.18623,0 -450.97561,-91.4539 -613.74184,-254.2202 -162.766242,-162.7662 -254.2202,-383.5556 -254.2202,-613.74181 0,-230.18622 91.453958,-450.9756 254.2202,-613.74184 C 276.05843,204.86002 496.84781,113.40606 727.03404,113.40606 Z" /></g></g><g
       id="g156"><g
         clip-path="url(#clipPath162)"
         id="g158"><path
           id="path164"
           style="fill:none;stroke:#f7203f;stroke-width:3.92013383;stroke-linecap:butt;stroke-linejoin:round;stroke-miterlimit:10;stroke-dasharray:none;stroke-opacity:1"
           d="m -431.79189,-1019.8315 c 215.01314,0 421.248834,85.42561 573.28608,237.46286 152.03724,152.03724 237.46287,358.27294 237.46287,573.28608 0,215.013129 -85.42563,421.24883 -237.46287,573.28607 -152.037246,152.03725 -358.27294,237.46287 -573.28608,237.46287 -215.01313,0 -421.24883,-85.42562 -573.28611,-237.46287 -152.0372,-152.03724 -237.4628,-358.272941 -237.4628,-573.28607 0,-215.01314 85.4256,-421.24884 237.4628,-573.28608 152.03728,-152.03725 358.27298,-237.46286 573.28611,-237.46286 z" /></g></g><g
       id="g166"><g
         clip-path="url(#clipPath172)"
         id="g168"><path
           id="path174"
           style="fill:none;stroke:#2849e2;stroke-width:5.01952219;stroke-linecap:butt;stroke-linejoin:round;stroke-miterlimit:10;stroke-dasharray:none;stroke-opacity:0.57480128"
           d="m 767.93154,428.92627 c 263.77856,0 516.78896,104.80033 703.30856,291.31994 186.5196,186.51961 291.3199,439.52999 291.3199,703.30859 0,263.7785 -104.8003,516.7889 -291.3199,703.3085 -186.5196,186.5196 -439.53,291.3199 -703.30856,291.3199 -263.77856,0 -516.78894,-104.8003 -703.308546,-291.3199 -186.519604,-186.5196 -291.319934,-439.53 -291.319934,-703.3085 0,-263.7786 104.80033,-516.78898 291.319934,-703.30859 C 251.1426,533.7266 504.15298,428.92627 767.93154,428.92627 Z" /></g></g><g
       id="g176"><g
         clip-path="url(#clipPath182)"
         id="g178"><path
           id="path184"
           style="fill:none;stroke:#7018bb;stroke-width:7.89693308;stroke-linecap:butt;stroke-linejoin:round;stroke-miterlimit:10;stroke-dasharray:none;stroke-opacity:0.09251571"
           d="m -58.529599,-1750.8741 c 304.463419,0 596.497789,120.9646 811.785939,336.2527 215.28814,215.2882 336.25276,507.32255 336.25276,811.78597 0,304.46341 -120.96462,596.497786 -336.25276,811.78593 -215.28815,215.28815 -507.32252,336.25275 -811.785939,336.25275 -304.463421,0 -596.497791,-120.9646 -811.785931,-336.25275 -215.28817,-215.288144 -336.25277,-507.32252 -336.25277,-811.78593 0,-304.46342 120.9646,-596.49777 336.25277,-811.78597 215.28814,-215.2881 507.32251,-336.2527 811.785931,-336.2527 z" /></g></g><g
       id="g186"><g
         clip-path="url(#clipPath192)"
         id="g188"><path
           id="path194"
           style="fill:none;stroke:#139af5;stroke-width:11.11503506;stroke-linecap:butt;stroke-linejoin:round;stroke-miterlimit:10;stroke-dasharray:none;stroke-opacity:0.97032674"
           d="m 764.50009,124.26587 c 265.43101,0 520.02641,105.45688 707.71451,293.14497 187.6881,187.68809 293.145,442.28349 293.145,707.71456 0,265.431 -105.4569,520.0264 -293.145,707.7145 -187.6881,187.6881 -442.2835,293.145 -707.71451,293.145 -265.43104,0 -520.02645,-105.4569 -707.714539,-293.145 -187.688091,-187.6881 -293.144961,-442.2835 -293.144961,-707.7145 0,-265.43107 105.45687,-520.02647 293.144961,-707.71456 C 244.47364,229.72275 499.06905,124.26587 764.50009,124.26587 Z" /></g></g><g
       id="g196"><g
         clip-path="url(#clipPath202)"
         id="g198"><path
           id="path204"
           style="fill:none;stroke:#327ac5;stroke-width:8.37255383;stroke-linecap:butt;stroke-linejoin:round;stroke-miterlimit:10;stroke-dasharray:none;stroke-opacity:0.92506684"
           d="m 795.71705,-1396.9048 c 356.57895,0 698.60135,141.6703 950.74075,393.8097 252.1394,252.13944 393.8098,594.16186 393.8098,950.740829 0,356.578961 -141.6704,698.601381 -393.8098,950.740791 -252.1394,252.13938 -594.1618,393.80968 -950.74075,393.80968 -356.57896,0 -698.601381,-141.6703 -950.74079,-393.80968 -252.1394,-252.13941 -393.80973,-594.16183 -393.80973,-950.740791 0,-356.578969 141.67033,-698.601389 393.80973,-950.740829 252.139409,-252.1394 594.16183,-393.8097 950.74079,-393.8097 z" /></g></g><g
       id="g206"><g
         clip-path="url(#clipPath212)"
         id="g208"><path
           id="path214"
           style="fill:none;stroke:#12f2c6;stroke-width:10.45387459;stroke-linecap:butt;stroke-linejoin:round;stroke-miterlimit:10;stroke-dasharray:none;stroke-opacity:0.37408968"
           d="m -212.23121,383.781 c 265.690488,0 520.53475,105.55995 708.40629,293.4315 187.87155,187.87154 293.4315,442.7158 293.4315,708.4063 0,265.6905 -105.55995,520.5347 -293.4315,708.4063 -187.87154,187.8715 -442.715802,293.4315 -708.40629,293.4315 -265.69048,0 -520.53474,-105.56 -708.40629,-293.4315 -187.8715,-187.8716 -293.4315,-442.7158 -293.4315,-708.4063 0,-265.6905 105.56,-520.53476 293.4315,-708.4063 187.87155,-187.87155 442.71581,-293.4315 708.40629,-293.4315 z" /></g></g><g
       id="g216"><g
         clip-path="url(#clipPath222)"
         id="g218"><path
           id="path224"
           style="fill:none;stroke:#4350e7;stroke-width:10.03802395;stroke-linecap:butt;stroke-linejoin:round;stroke-miterlimit:10;stroke-dasharray:none;stroke-opacity:0.60518919"
           d="m -216.1624,-1588.6716 c 274.371811,0 537.543,109.0091 731.55317,303.0193 194.01017,194.0102 303.01925,457.18135 303.01925,731.55317 0,274.37181 -109.00908,537.543001 -303.01925,731.55317 C 321.3806,371.46421 58.209411,480.47329 -216.1624,480.47329 c -274.37182,0 -537.54301,-109.00908 -731.55318,-303.01925 -194.01012,-194.010169 -303.01922,-457.18136 -303.01922,-731.55317 0,-274.37182 109.0091,-537.54297 303.01922,-731.55317 194.01017,-194.0102 457.18136,-303.0193 731.55318,-303.0193 z" /></g></g><g
       id="g226"><g
         clip-path="url(#clipPath232)"
         id="g228"><path
           id="path234"
           style="fill:none;stroke:#1ff0e7;stroke-width:10.40624905;stroke-linecap:butt;stroke-linejoin:round;stroke-miterlimit:10;stroke-dasharray:none;stroke-opacity:1"
           d="m -98.103463,674.85171 c 201.703703,0 395.173293,80.13773 537.799343,222.76378 142.62606,142.62601 222.76378,336.09561 222.76378,537.79931 0,201.7037 -80.13772,395.1733 -222.76378,537.7994 -142.62605,142.626 -336.09564,222.7638 -537.799343,222.7638 -201.703697,0 -395.173287,-80.1378 -537.799347,-222.7638 -142.62605,-142.6261 -222.76378,-336.0957 -222.76378,-537.7994 0,-201.7037 80.13773,-395.1733 222.76378,-537.79931 142.62606,-142.62605 336.09565,-222.76378 537.799347,-222.76378 z" /></g></g><g
       id="g236"><g
         clip-path="url(#clipPath242)"
         id="g238"><path
           id="path244"
           style="fill:none;stroke:#e01d6b;stroke-width:11.99620914;stroke-linecap:butt;stroke-linejoin:round;stroke-miterlimit:10;stroke-dasharray:none;stroke-opacity:1"
           d="m 534.6725,-1498.0204 c 332.57428,0 651.5719,132.1332 886.7375,367.2987 235.1655,235.16552 367.2987,554.16319 367.2987,886.73746 0,332.574276 -132.1332,651.57194 -367.2987,886.73747 -235.1656,235.16552 -554.16322,367.29867 -886.7375,367.29867 -332.57427,0 -651.57194,-132.13315 -886.73746,-367.29867 -235.16553,-235.16553 -367.29868,-554.163194 -367.29868,-886.73747 0,-332.57427 132.13315,-651.57194 367.29868,-886.73746 235.16552,-235.1655 554.16319,-367.2987 886.73746,-367.2987 z" /></g></g><g
       id="g246"><g
         clip-path="url(#clipPath252)"
         id="g248"><path
           id="path254"
           style="fill:none;stroke:#29e89f;stroke-width:10.19005203;stroke-linecap:butt;stroke-linejoin:round;stroke-miterlimit:10;stroke-dasharray:none;stroke-opacity:1"
           d="m -280.53426,458.50555 c 207.111096,0 405.76734,82.28611 552.21699,228.73577 146.44966,146.44966 228.73577,345.10588 228.73577,552.21698 0,207.1111 -82.28611,405.7673 -228.73577,552.217 -146.44965,146.4497 -345.105894,228.7358 -552.21699,228.7358 -207.11109,0 -405.76733,-82.2861 -552.21699,-228.7358 -146.44965,-146.4497 -228.73575,-345.1059 -228.73575,-552.217 0,-207.1111 82.2861,-405.76732 228.73575,-552.21698 146.44966,-146.44966 345.1059,-228.73577 552.21699,-228.73577 z" /></g></g><g
       id="g256"><g
         clip-path="url(#clipPath262)"
         id="g258"><path
           id="path264"
           style="fill:none;stroke:#c74f61;stroke-width:6.5095191;stroke-linecap:butt;stroke-linejoin:round;stroke-miterlimit:10;stroke-dasharray:none;stroke-opacity:1"
           d="m 638.91878,-1942.3742 c 310.20391,0 607.74442,123.2454 827.09172,342.5927 219.3473,219.3472 342.5926,516.8878 342.5926,827.0917 0,310.20392 -123.2453,607.74445 -342.5926,827.09174 -219.3473,219.34729 -516.88781,342.59262 -827.09172,342.59262 -310.20392,0 -607.744453,-123.24533 -827.09175,-342.59262 -219.34729,-219.34729 -342.59261,-516.88782 -342.59261,-827.09174 0,-310.2039 123.24532,-607.7445 342.59261,-827.0917 219.347297,-219.3473 516.88783,-342.5927 827.09175,-342.5927 z" /></g></g><g
       id="g266"><g
         clip-path="url(#clipPath272)"
         id="g268"><path
           id="path274"
           style="fill:none;stroke:#3854cc;stroke-width:6.2089386;stroke-linecap:butt;stroke-linejoin:round;stroke-miterlimit:10;stroke-dasharray:none;stroke-opacity:1"
           d="m 497.04536,42.358188 c 292.22534,0 572.52124,116.102362 779.15574,322.736882 206.6345,206.63452 322.7369,486.9304 322.7369,779.15573 0,292.2254 -116.1024,572.5212 -322.7369,779.1558 -206.6345,206.6345 -486.9304,322.7368 -779.15574,322.7368 -292.22534,0 -572.521229,-116.1023 -779.15575,-322.7368 -206.63452,-206.6346 -322.73688,-486.9304 -322.73688,-779.1558 0,-292.22533 116.10236,-572.52121 322.73688,-779.15573 C -75.475869,158.46055 204.82002,42.358188 497.04536,42.358188 Z" /></g></g><g
       id="g276"><g
         clip-path="url(#clipPath282)"
         id="g278"><path
           id="path284"
           style="fill:none;stroke:#4080e9;stroke-width:12.72364426;stroke-linecap:butt;stroke-linejoin:round;stroke-miterlimit:10;stroke-dasharray:none;stroke-opacity:1"
           d="m 719.21371,-1661.5566 c 285.63889,0 559.61719,113.4855 761.59439,315.4627 201.9773,201.9773 315.4628,475.95558 315.4628,761.59449 0,285.6389 -113.4855,559.617225 -315.4628,761.59443 -201.9772,201.97721 -475.9555,315.46275 -761.59439,315.46275 -285.6389,0 -559.61723,-113.48554 -761.594436,-315.46275 -201.977204,-201.977205 -315.462744,-475.95553 -315.462744,-761.59443 0,-285.63891 113.48554,-559.61719 315.462744,-761.59449 201.977206,-201.9772 475.955536,-315.4627 761.594436,-315.4627 z" /></g></g><g
       id="g286"><g
         clip-path="url(#clipPath292)"
         id="g288"><path
           id="path294"
           style="fill:none;stroke:#3936e4;stroke-width:6.50555563;stroke-linecap:butt;stroke-linejoin:round;stroke-miterlimit:10;stroke-dasharray:none;stroke-opacity:0.3092944"
           d="m -442.25265,147.64607 c 253.96483,0 497.562118,100.90129 677.14238,280.48155 179.58026,179.58026 280.48156,423.17755 280.48156,677.14238 0,253.9648 -100.9013,497.5621 -280.48156,677.1424 -179.580262,179.5802 -423.17755,280.4815 -677.14238,280.4815 -253.96484,0 -497.56213,-100.9013 -677.14235,-280.4815 -179.5803,-179.5803 -280.4816,-423.1776 -280.4816,-677.1424 0,-253.96483 100.9013,-497.56212 280.4816,-677.14238 179.58022,-179.58026 423.17751,-280.48155 677.14235,-280.48155 z" /></g></g><g
       id="g296"><g
         clip-path="url(#clipPath302)"
         id="g298"><path
           id="path304"
           style="fill:none;stroke:#68bd16;stroke-width:9.9496479;stroke-linecap:butt;stroke-linejoin:round;stroke-miterlimit:10;stroke-dasharray:none;stroke-opacity:1"
           d="m 549.63714,439.6036 c 257.90767,0 505.28686,102.4678 687.65506,284.83606 182.3683,182.36826 284.8361,429.74744 284.8361,687.65514 0,257.9076 -102.4678,505.2868 -284.8361,687.655 -182.3682,182.3683 -429.74739,284.8361 -687.65506,284.8361 -257.90766,0 -505.286823,-102.4678 -687.65508,-284.8361 -182.36826,-182.3682 -284.83607,-429.7474 -284.83607,-687.655 0,-257.9077 102.46781,-505.28688 284.83607,-687.65514 C 44.350317,542.0714 291.72948,439.6036 549.63714,439.6036 Z" /></g></g><g
       id="g306"><g
         clip-path="url(#clipPath312)"
         id="g308"><path
           id="path314"
           style="fill:none;stroke:#9600cc;stroke-width:6.33274269;stroke-linecap:butt;stroke-linejoin:round;stroke-miterlimit:10;stroke-dasharray:none;stroke-opacity:0.62283092"
           d="m 744.41794,-1655.8182 c 308.06756,0 603.55896,122.3966 821.39566,340.2332 217.8367,217.8367 340.2332,513.32814 340.2332,821.39573 0,308.06759 -122.3965,603.559 -340.2332,821.39568 -217.8367,217.83668 -513.3281,340.23323 -821.39566,340.23323 -308.06759,0 -603.559,-122.39655 -821.395683,-340.23323 -217.836677,-217.83668 -340.233227,-513.32809 -340.233227,-821.39568 0,-308.06759 122.39655,-603.55903 340.233227,-821.39573 217.836683,-217.8366 513.328093,-340.2332 821.395683,-340.2332 z" /></g></g><g
       id="g316"><g
         clip-path="url(#clipPath322)"
         id="g318"><path
           id="path324"
           style="fill:none;stroke:#5b00fe;stroke-width:9.02741718;stroke-linecap:butt;stroke-linejoin:round;stroke-miterlimit:10;stroke-dasharray:none;stroke-opacity:0.6205804"
           d="m -100.1626,-1776.192 c 317.32834,0 621.70245,126.0759 846.08747,350.4609 224.38502,224.3851 350.46093,528.75918 350.46093,846.08751 0,317.32834 -126.07591,621.702456 -350.46093,846.08748 -224.38502,224.38502 -528.75913,350.4609 -846.08747,350.4609 -317.32834,0 -621.70245,-126.07588 -846.08747,-350.4609 -224.38503,-224.385024 -350.46093,-528.75914 -350.46093,-846.08748 0,-317.32833 126.0759,-621.70241 350.46093,-846.08751 224.38502,-224.385 528.75913,-350.4609 846.08747,-350.4609 z" /></g></g><g
       id="g326"><g
         clip-path="url(#clipPath332)"
         id="g328"><path
           id="path334"
           style="fill:none;stroke:#1d2ccf;stroke-width:5.70859909;stroke-linecap:butt;stroke-linejoin:round;stroke-miterlimit:10;stroke-dasharray:none;stroke-opacity:0.78182211"
           d="m -88.806071,-137.03049 c 260.822031,0 510.996591,103.625697 695.425621,288.05473 184.42903,184.42903 288.05472,434.60358 288.05472,695.42561 0,260.82205 -103.62569,510.99655 -288.05472,695.42565 -184.42903,184.429 -434.60359,288.0547 -695.425621,288.0547 -260.822039,0 -510.996589,-103.6257 -695.425619,-288.0547 -184.42903,-184.4291 -288.05471,-434.6036 -288.05471,-695.42565 0,-260.82203 103.62568,-510.99658 288.05471,-695.42561 184.42903,-184.429033 434.60358,-288.05473 695.425619,-288.05473 z" /></g></g><g
       id="g336"><g
         clip-path="url(#clipPath342)"
         id="g338"><path
           id="path344"
           style="fill:none;stroke:#fd06e6;stroke-width:5.39971447;stroke-linecap:butt;stroke-linejoin:round;stroke-miterlimit:10;stroke-dasharray:none;stroke-opacity:1"
           d="m 720.65613,458.22443 c 287.79907,0 563.84937,114.34378 767.35407,317.84845 203.5047,203.50467 317.8484,479.55502 317.8484,767.35402 0,287.7991 -114.3437,563.8494 -317.8484,767.3541 -203.5047,203.5047 -479.555,317.8484 -767.35407,317.8484 -287.79907,0 -563.84938,-114.3437 -767.354049,-317.8484 -203.504671,-203.5047 -317.848451,-479.555 -317.848451,-767.3541 0,-287.799 114.34378,-563.84935 317.848451,-767.35402 C 156.80675,572.56821 432.85706,458.22443 720.65613,458.22443 Z" /></g></g><g
       id="g346"><g
         clip-path="url(#clipPath352)"
         id="g348"><path
           id="path354"
           style="fill:none;stroke:#23f675;stroke-width:7.1594882;stroke-linecap:butt;stroke-linejoin:round;stroke-miterlimit:10;stroke-dasharray:none;stroke-opacity:0.46449806"
           d="m -120.01014,396.55987 c 219.331492,0 429.70926,87.14132 584.80005,242.23211 155.09078,155.09079 242.23211,365.46852 242.23211,584.80002 0,219.3315 -87.14133,429.7093 -242.23211,584.8001 -155.09079,155.0908 -365.468558,242.2321 -584.80005,242.2321 -219.33149,0 -429.70926,-87.1413 -584.80005,-242.2321 -155.09079,-155.0908 -242.23211,-365.4686 -242.23211,-584.8001 0,-219.3315 87.14132,-429.70923 242.23211,-584.80002 155.09079,-155.09079 365.46856,-242.23211 584.80005,-242.23211 z" /></g></g><g
       id="g356"><g
         clip-path="url(#clipPath362)"
         id="g358"><path
           id="path364"
           style="fill:none;stroke:#c23ea8;stroke-width:4.06705236;stroke-linecap:butt;stroke-linejoin:round;stroke-miterlimit:10;stroke-dasharray:none;stroke-opacity:0.87459717"
           d="m -428.44276,-784.89788 c 202.76019,0 397.243155,80.55748 540.61626,223.93059 143.37312,143.37311 223.9306,337.85607 223.9306,540.616269 0,202.760201 -80.55748,397.243161 -223.9306,540.616271 -143.373105,143.37311 -337.85607,223.93059 -540.61626,223.93059 -202.7602,0 -397.24316,-80.55748 -540.61627,-223.93059 -143.37307,-143.37311 -223.93057,-337.85607 -223.93057,-540.616271 0,-202.760199 80.5575,-397.243159 223.93057,-540.616269 143.37311,-143.37311 337.85607,-223.93059 540.61627,-223.93059 z" /></g></g><g
       id="g366"><g
         clip-path="url(#clipPath372)"
         id="g368"><path
           id="path374"
           style="fill:none;stroke:#e62961;stroke-width:5.38115311;stroke-linecap:butt;stroke-linejoin:round;stroke-miterlimit:10;stroke-dasharray:none;stroke-opacity:1"
           d="m -160.8936,-1079.824 c 245.755279,0 481.47814,97.63958 655.25337,271.41481 173.77522,173.77522 271.41483,409.49808 271.41483,655.25336 0,245.755278 -97.63961,481.47814 -271.41483,655.25336 -173.77523,173.77523 -409.498091,271.41483 -655.25337,271.41483 -245.75528,0 -481.47814,-97.6396 -655.25336,-271.41483 -173.77522,-173.77522 -271.41484,-409.498082 -271.41484,-655.25336 0,-245.75528 97.63962,-481.47814 271.41484,-655.25336 173.77522,-173.77523 409.49808,-271.41481 655.25336,-271.41481 z" /></g></g><g
       id="g376"><g
         clip-path="url(#clipPath382)"
         id="g378"><path
           id="path384"
           style="fill:none;stroke:#5555da;stroke-width:4.20238829;stroke-linecap:butt;stroke-linejoin:round;stroke-miterlimit:10;stroke-dasharray:none;stroke-opacity:1"
           d="m -179.25025,-1222.2643 c 283.44103,0 555.31122,112.6124 755.7343,313.03544 200.42308,200.42308 313.0354,472.29327 313.0354,755.73431 0,283.44104 -112.61232,555.31122 -313.0354,755.7343 -200.42308,200.42308 -472.29327,313.0354 -755.7343,313.0354 -283.44104,0 -555.31123,-112.61232 -755.73431,-313.0354 C -1135.4076,401.81667 -1248.02,129.94649 -1248.02,-153.49455 c 0,-283.44104 112.6124,-555.31123 313.03544,-755.73431 200.42308,-200.42304 472.29327,-313.03544 755.73431,-313.03544 z" /></g></g><g
       id="g386"><g
         clip-path="url(#clipPath392)"
         id="g388"><path
           id="path394"
           style="fill:none;stroke:#c505c7;stroke-width:12.92185402;stroke-linecap:butt;stroke-linejoin:round;stroke-miterlimit:10;stroke-dasharray:none;stroke-opacity:1"
           d="m -428.089,-1877.8522 c 383.297512,0 750.94775,152.2857 1021.98002,423.318 271.03227,271.0322 423.31798,638.68247 423.31798,1021.97998 0,383.297512 -152.28571,750.94775 -423.31798,1021.98002 -271.03227,271.03227 -638.682508,423.318 -1021.98002,423.318 -383.29751,0 -750.9478,-152.28573 -1021.98,-423.318 -271.0323,-271.03227 -423.318,-638.682508 -423.318,-1021.98002 0,-383.29751 152.2857,-750.94778 423.318,-1021.97998 271.0322,-271.0323 638.68249,-423.318 1021.98,-423.318 z" /></g></g><g
       id="g396"><g
         clip-path="url(#clipPath402)"
         id="g398"><path
           id="path404"
           style="fill:none;stroke:#e62a2a;stroke-width:5.67529917;stroke-linecap:butt;stroke-linejoin:round;stroke-miterlimit:10;stroke-dasharray:none;stroke-opacity:1"
           d="m -4.503549,187.24621 c 342.593629,0 671.201639,136.11389 913.451919,378.36417 242.25023,242.25028 378.36413,570.85832 378.36413,913.45192 0,342.5936 -136.1139,671.2016 -378.36413,913.4519 -242.25028,242.2503 -570.85829,378.3642 -913.451919,378.3642 -342.593631,0 -671.201641,-136.1139 -913.451921,-378.3642 -242.25023,-242.2503 -378.36413,-570.8583 -378.36413,-913.4519 0,-342.5936 136.1139,-671.20164 378.36413,-913.45192 C -675.70519,323.3601 -347.09718,187.24621 -4.503549,187.24621 Z" /></g></g><g
       id="g406"><g
         clip-path="url(#clipPath412)"
         id="g408"><path
           id="path414"
           style="fill:none;stroke:#dae02a;stroke-width:4.65667963;stroke-linecap:butt;stroke-linejoin:round;stroke-miterlimit:10;stroke-dasharray:none;stroke-opacity:0.24557495"
           d="m -222.07647,-34.328282 c 346.99222,0 679.81925,137.861472 925.17981,383.222022 245.36055,245.36055 383.22206,578.18759 383.22206,925.17976 0,346.9923 -137.86151,679.8193 -383.22206,925.1799 -245.36056,245.3605 -578.18759,383.222 -925.17981,383.222 -346.99222,0 -679.81925,-137.8615 -925.17983,-383.222 -245.3605,-245.3606 -383.222,-578.1876 -383.222,-925.1799 0,-346.99217 137.8615,-679.81921 383.222,-925.17976 245.36058,-245.36055 578.18761,-383.222022 925.17983,-383.222022 z" /></g></g><g
       id="g416"><g
         clip-path="url(#clipPath422)"
         id="g418"><path
           id="path424"
           style="fill:none;stroke:#e44a51;stroke-width:4.41844511;stroke-linecap:butt;stroke-linejoin:round;stroke-miterlimit:10;stroke-dasharray:none;stroke-opacity:1"
           d="m 792.0768,-380.11035 c 347.8662,0 681.5316,138.20872 927.5102,384.187298 245.9786,245.978582 384.1873,579.643952 384.1873,927.510192 0,347.86626 -138.2087,681.53166 -384.1873,927.51016 -245.9786,245.9786 -579.644,384.1873 -927.5102,384.1873 -347.86624,0 -681.53161,-138.2087 -927.51019,-384.1873 -245.97858,-245.9785 -384.18731,-579.6439 -384.18731,-927.51016 0,-347.86624 138.20873,-681.53161 384.18731,-927.510192 C 110.54519,-241.90163 444.21056,-380.11035 792.0768,-380.11035 Z" /></g></g><g
       id="g426"><g
         clip-path="url(#clipPath432)"
         id="g428"><path
           id="path434"
           style="fill:none;stroke:#6856d4;stroke-width:8.81212234;stroke-linecap:butt;stroke-linejoin:round;stroke-miterlimit:10;stroke-dasharray:none;stroke-opacity:1"
           d="m 552.43239,-1015.6258 c 217.00285,0 425.14704,86.21614 578.59121,239.66033 153.4442,153.44418 239.6603,361.58837 239.6603,578.59122 0,217.002849 -86.2161,425.14704 -239.6603,578.59122 C 977.57943,534.66116 769.43524,620.8773 552.43239,620.8773 335.42954,620.8773 127.28535,534.66116 -26.158832,381.21697 -179.60302,227.77279 -265.81916,19.628599 -265.81916,-197.37425 c 0,-217.00285 86.21614,-425.14704 239.660328,-578.59122 C 127.28535,-929.40966 335.42954,-1015.6258 552.43239,-1015.6258 Z" /></g></g><g
       id="g436"><g
         clip-path="url(#clipPath442)"
         id="g438"><path
           id="path444"
           style="fill:none;stroke:#8e1bb7;stroke-width:4.56956339;stroke-linecap:butt;stroke-linejoin:round;stroke-miterlimit:10;stroke-dasharray:none;stroke-opacity:1"
           d="m 741.13541,-1492.1635 c 274.51759,0 537.82869,109.067 731.94189,303.1803 194.1133,194.11328 303.1803,457.42432 303.1803,731.94194 0,274.51762 -109.067,537.828666 -303.1803,731.94194 -194.1132,194.11327 -457.4243,303.18027 -731.94189,303.18027 -274.51762,0 -537.82866,-109.067 -731.941934,-303.18027 C -184.91979,80.787406 -293.9868,-182.52364 -293.9868,-457.04126 c 0,-274.51762 109.06701,-537.82866 303.180276,-731.94194 194.113274,-194.1133 457.424314,-303.1803 731.941934,-303.1803 z" /></g></g><g
       id="g446"><g
         clip-path="url(#clipPath452)"
         id="g448"><path
           id="path454"
           style="fill:none;stroke:#21e5b4;stroke-width:8.02919102;stroke-linecap:butt;stroke-linejoin:round;stroke-miterlimit:10;stroke-dasharray:none;stroke-opacity:1"
           d="m 458.22733,-1996.4678 c 382.53723,0 749.45827,151.9836 1019.95287,422.4783 270.4947,270.4947 422.4783,637.41565 422.4783,1019.95289 0,382.53723 -151.9836,749.45822 -422.4783,1019.95289 -270.4946,270.49467 -637.41564,422.47833 -1019.95287,422.47833 -382.537234,0 -749.45823,-151.98366 -1019.9529,-422.47833 -270.49467,-270.49467 -422.47832,-637.41566 -422.47832,-1019.95289 0,-382.53724 151.98365,-749.45819 422.47832,-1019.95289 270.49467,-270.4947 637.415666,-422.4783 1019.9529,-422.4783 z" /></g></g><g
       id="g456"><g
         clip-path="url(#clipPath462)"
         id="g458"><path
           id="path464"
           style="fill:none;stroke:#96ca52;stroke-width:9.04784775;stroke-linecap:butt;stroke-linejoin:round;stroke-miterlimit:10;stroke-dasharray:none;stroke-opacity:1"
           d="m 726.09497,213.38018 c 324.62833,0 636.00433,128.97618 865.55123,358.52304 229.5468,229.54686 358.523,540.92288 358.523,865.55118 0,324.6283 -128.9762,636.0043 -358.523,865.5512 -229.5469,229.5469 -540.9229,358.5231 -865.55123,358.5231 -324.62828,0 -636.004329,-128.9762 -865.55119,-358.5231 -229.54686,-229.5469 -358.52304,-540.9229 -358.52304,-865.5512 0,-324.6283 128.97618,-636.00432 358.52304,-865.55118 C 90.090641,342.35636 401.46669,213.38018 726.09497,213.38018 Z" /></g></g><g
       id="g466"><g
         clip-path="url(#clipPath472)"
         id="g468"><path
           id="path474"
           style="fill:none;stroke:#851bf4;stroke-width:9.70073509;stroke-linecap:butt;stroke-linejoin:round;stroke-miterlimit:10;stroke-dasharray:none;stroke-opacity:1"
           d="m -6.527807,-1568.761 c 292.547187,0 573.151797,116.2302 780.013897,323.0923 206.8621,206.8621 323.09231,487.46675 323.09231,780.01394 0,292.54719 -116.23021,573.15179 -323.09231,780.01389 -206.8621,206.86211 -487.46671,323.09234 -780.013897,323.09234 -292.547193,0 -573.151793,-116.23023 -780.013893,-323.09234 -206.86211,-206.8621 -323.0923,-487.4667 -323.0923,-780.01389 0,-292.54719 116.23019,-573.15184 323.0923,-780.01394 206.8621,-206.8621 487.4667,-323.0923 780.013893,-323.0923 z" /></g></g><g
       id="g476"><g
         clip-path="url(#clipPath482)"
         id="g478"><path
           id="path484"
           style="fill:none;stroke:#1488db;stroke-width:6.50119066;stroke-linecap:butt;stroke-linejoin:round;stroke-miterlimit:10;stroke-dasharray:none;stroke-opacity:1"
           d="m -279.04552,-6.237338 c 270.776084,0 530.49834,107.580478 721.96595,299.048088 191.46761,191.46761 299.04808,451.18986 299.04808,721.96595 0,270.7761 -107.58047,530.4983 -299.04808,721.966 -191.46761,191.4676 -451.189866,299.048 -721.96595,299.048 -270.77609,0 -530.49835,-107.5804 -721.96598,-299.048 -191.4676,-191.4677 -299.0481,-451.1899 -299.0481,-721.966 0,-270.77609 107.5805,-530.49834 299.0481,-721.96595 191.46763,-191.46761 451.18989,-299.048088 721.96598,-299.048088 z" /></g></g><g
       id="g486"><g
         clip-path="url(#clipPath492)"
         id="g488"><path
           id="path494"
           style="fill:none;stroke:#cd39d4;stroke-width:6.83415604;stroke-linecap:butt;stroke-linejoin:round;stroke-miterlimit:10;stroke-dasharray:none;stroke-opacity:1"
           d="m -258.50332,477.53413 c 232.328184,0 455.17209,92.30496 619.45292,256.5858 164.28084,164.28084 256.58581,387.12477 256.58581,619.45297 0,232.3281 -92.30497,455.172 -256.58581,619.4529 -164.28083,164.2808 -387.124736,256.5858 -619.45292,256.5858 -232.32819,0 -455.17209,-92.305 -619.45293,-256.5858 -164.28085,-164.2809 -256.58585,-387.1248 -256.58585,-619.4529 0,-232.3282 92.305,-455.17213 256.58585,-619.45297 164.28084,-164.28084 387.12474,-256.5858 619.45293,-256.5858 z" /></g></g><g
       id="g496"><g
         clip-path="url(#clipPath502)"
         id="g498"><path
           id="path504"
           style="fill:none;stroke:#bc281a;stroke-width:11.13049412;stroke-linecap:butt;stroke-linejoin:round;stroke-miterlimit:10;stroke-dasharray:none;stroke-opacity:1"
           d="m 474.34304,-194.2768 c 345.30954,0 676.52256,137.192937 920.69326,381.36366 244.1708,244.17071 381.3637,575.38376 381.3637,920.69334 0,345.3095 -137.1929,676.5226 -381.3637,920.6933 -244.1707,244.1707 -575.38372,381.3636 -920.69326,381.3636 -345.30955,0 -676.52259,-137.1929 -920.69331,-381.3636 -244.17072,-244.1707 -381.36366,-575.3838 -381.36366,-920.6933 0,-345.30958 137.19294,-676.52263 381.36366,-920.69334 244.17072,-244.170723 575.38376,-381.36366 920.69331,-381.36366 z" /></g></g><g
       id="g506"><g
         clip-path="url(#clipPath512)"
         id="g508"><path
           id="path514"
           style="fill:none;stroke:#4455c6;stroke-width:8.25986481;stroke-linecap:butt;stroke-linejoin:round;stroke-miterlimit:10;stroke-dasharray:none;stroke-opacity:1"
           d="m 723.63245,-1852.5084 c 327.54345,0 641.71565,130.1344 873.32385,361.7425 231.6081,231.6082 361.7425,545.7804 361.7425,873.32383 0,327.54343 -130.1344,641.715617 -361.7425,873.3238 -231.6082,231.60817 -545.7804,361.74256 -873.32385,361.74256 -327.54342,0 -641.715614,-130.13439 -873.32379,-361.74256 -231.60818,-231.608183 -361.74256,-545.78037 -361.74256,-873.3238 0,-327.54343 130.13438,-641.71563 361.74256,-873.32383 231.608176,-231.6081 545.78037,-361.7425 873.32379,-361.7425 z" /></g></g><g
       id="g516"><g
         clip-path="url(#clipPath522)"
         id="g518"><path
           id="path524"
           style="fill:none;stroke:#8e2cb4;stroke-width:12.46198177;stroke-linecap:butt;stroke-linejoin:round;stroke-miterlimit:10;stroke-dasharray:none;stroke-opacity:1"
           d="m 669.23142,505.8985 c 220.42877,0 431.85908,87.57728 587.72568,243.44396 155.8667,155.86668 243.444,367.29694 243.444,587.72574 0,220.4287 -87.5773,431.859 -243.444,587.7257 -155.8666,155.8667 -367.29691,243.4439 -587.72568,243.4439 -220.42877,0 -431.85902,-87.5772 -587.725703,-243.4439 -155.86668,-155.8667 -243.443957,-367.297 -243.443957,-587.7257 0,-220.4288 87.577277,-431.85906 243.443957,-587.72574 C 237.3724,593.47578 448.80265,505.8985 669.23142,505.8985 Z" /></g></g><g
       id="g526"><g
         clip-path="url(#clipPath532)"
         id="g528"><path
           id="path534"
           style="fill:none;stroke:#a931de;stroke-width:6.27221918;stroke-linecap:butt;stroke-linejoin:round;stroke-miterlimit:10;stroke-dasharray:none;stroke-opacity:1"
           d="m -130.00813,-1970.5658 c 379.32023,0 743.15556,150.7055 1011.37547,418.9254 268.21996,268.2199 418.92546,632.05528 418.92546,1011.37551 0,379.32024 -150.7055,743.15557 -418.92546,1011.37548 -268.21991,268.21992 -632.05524,418.92544 -1011.37547,418.92544 -379.32024,0 -743.15557,-150.70552 -1011.37547,-418.92544 -268.2199,-268.21991 -418.9255,-632.05524 -418.9255,-1011.37548 0,-379.32023 150.7056,-743.15561 418.9255,-1011.37551 268.2199,-268.2199 632.05523,-418.9254 1011.37547,-418.9254 z" /></g></g><g
       id="g536"><g
         clip-path="url(#clipPath542)"
         id="g538"><path
           id="path544"
           style="fill:none;stroke:#efbf3f;stroke-width:5.82102728;stroke-linecap:butt;stroke-linejoin:round;stroke-miterlimit:10;stroke-dasharray:none;stroke-opacity:1"
           d="m 669.09677,-1481.3224 c 346.34283,0 678.54703,137.6034 923.44843,382.5048 244.9014,244.90144 382.5049,577.10564 382.5049,923.44852 0,346.34288 -137.6035,678.54708 -382.5049,923.44848 -244.9014,244.9014 -577.1056,382.5049 -923.44843,382.5049 -346.34288,0 -678.547078,-137.6035 -923.44848,-382.5049 -244.9014,-244.9014 -382.50488,-577.1056 -382.50488,-923.44848 0,-346.34288 137.60348,-678.54708 382.50488,-923.44852 244.901402,-244.9014 577.1056,-382.5048 923.44848,-382.5048 z" /></g></g><g
       id="g546"><g
         clip-path="url(#clipPath552)"
         id="g548"><path
           id="path554"
           style="fill:none;stroke:#29b2f5;stroke-width:9.09528637;stroke-linecap:butt;stroke-linejoin:round;stroke-miterlimit:10;stroke-dasharray:none;stroke-opacity:1"
           d="m 813.36074,-59.355984 c 260.97396,0 511.29416,103.686047 695.83066,288.222494 184.5364,184.53644 288.2225,434.85671 288.2225,695.83065 0,260.97394 -103.6861,511.29424 -288.2225,695.83064 -184.5365,184.5365 -434.8567,288.2225 -695.83066,288.2225 -260.97394,0 -511.2942,-103.686 -695.83065,-288.2225 -184.536445,-184.5364 -288.22249,-434.8567 -288.22249,-695.83064 0,-260.97394 103.686045,-511.29421 288.22249,-695.83065 C 302.06654,44.330063 552.3868,-59.355984 813.36074,-59.355984 Z" /></g></g><g
       id="g556"><g
         clip-path="url(#clipPath562)"
         id="g558"><path
           id="path564"
           style="fill:none;stroke:#5c18b7;stroke-width:12.96211815;stroke-linecap:butt;stroke-linejoin:round;stroke-miterlimit:10;stroke-dasharray:none;stroke-opacity:1"
           d="m 782.14915,-1459.0723 c 291.41735,0 570.93835,115.7814 777.00155,321.8446 206.0632,206.06321 321.8445,485.58413 321.8445,777.00152 0,291.417388 -115.7813,570.93831 -321.8445,777.00152 -206.0632,206.06321 -485.5842,321.84457 -777.00155,321.84457 -291.41739,0 -570.9383,-115.78136 -777.001515,-321.84457 C -200.91558,210.71213 -316.69693,-68.808792 -316.69693,-360.22618 c 0,-291.41739 115.78135,-570.93831 321.844565,-777.00152 206.063215,-206.0632 485.584125,-321.8446 777.001515,-321.8446 z" /></g></g><g
       id="g566"><g
         clip-path="url(#clipPath572)"
         id="g568"><path
           id="path574"
           style="fill:none;stroke:#0831f3;stroke-width:6.02179289;stroke-linecap:butt;stroke-linejoin:round;stroke-miterlimit:10;stroke-dasharray:none;stroke-opacity:1"
           d="m -102.68182,426.64909 c 236.29341,0 462.94067,93.88037 630.02534,260.96504 167.08468,167.08468 260.96504,393.73197 260.96504,630.02537 0,236.2934 -93.88036,462.9406 -260.96504,630.0253 -167.08467,167.0847 -393.73193,260.9651 -630.02534,260.9651 -236.29341,0 -462.94066,-93.8804 -630.02534,-260.9651 -167.08467,-167.0847 -260.96504,-393.7319 -260.96504,-630.0253 0,-236.2934 93.88037,-462.94069 260.96504,-630.02537 167.08468,-167.08467 393.73193,-260.96504 630.02534,-260.96504 z" /></g></g><g
       id="g576"><g
         clip-path="url(#clipPath582)"
         id="g578"><path
           id="path584"
           style="fill:none;stroke:#d42f92;stroke-width:3.01529694;stroke-linecap:butt;stroke-linejoin:round;stroke-miterlimit:10;stroke-dasharray:none;stroke-opacity:1"
           d="m -343.74308,-1495.6686 c 231.8895,0 454.31263,92.1307 618.28327,256.1013 163.97065,163.9707 256.10132,386.39381 256.10132,618.28332 0,231.8895 -92.13067,454.31263 -256.10132,618.283277 -163.97064,163.970643 -386.39377,256.101323 -618.28327,256.101323 -231.88951,0 -454.31264,-92.13068 -618.28328,-256.101323 -163.97064,-163.970647 -256.10134,-386.393777 -256.10134,-618.283277 0,-231.88951 92.1307,-454.31262 256.10134,-618.28332 163.97064,-163.9706 386.39377,-256.1013 618.28328,-256.1013 z" /></g></g><g
       id="g586"><g
         clip-path="url(#clipPath592)"
         id="g588"><path
           id="path594"
           style="fill:none;stroke:#e821a4;stroke-width:7.70862436;stroke-linecap:butt;stroke-linejoin:round;stroke-miterlimit:10;stroke-dasharray:none;stroke-opacity:1"
           d="m -441.70337,-131.69746 c 391.45735,0 766.93432,155.527653 1043.73647,432.3298 276.80214,276.80215 432.3298,652.27912 432.3298,1043.73646 0,391.4574 -155.52766,766.9343 -432.3298,1043.7365 -276.80215,276.8021 -652.27912,432.3298 -1043.73647,432.3298 -391.45735,0 -766.93433,-155.5277 -1043.73643,-432.3298 -276.8022,-276.8022 -432.3298,-652.2791 -432.3298,-1043.7365 0,-391.45734 155.5276,-766.93431 432.3298,-1043.73646 276.8021,-276.802147 652.27908,-432.3298 1043.73643,-432.3298 z" /></g></g><g
       id="g596"><g
         clip-path="url(#clipPath602)"
         id="g598"><path
           id="path604"
           style="fill:none;stroke:#54d763;stroke-width:4.66111088;stroke-linecap:butt;stroke-linejoin:round;stroke-miterlimit:10;stroke-dasharray:none;stroke-opacity:1"
           d="m 525.92244,172.50633 c 229.60561,0 449.83809,91.22328 612.19376,253.57897 162.3557,162.35568 253.579,382.58816 253.579,612.1938 0,229.6056 -91.2233,449.8381 -253.579,612.1938 -162.35567,162.3556 -382.58815,253.5789 -612.19376,253.5789 -229.60562,0 -449.838094,-91.2233 -612.193783,-253.5789 -162.355687,-162.3557 -253.578967,-382.5882 -253.578967,-612.1938 0,-229.60564 91.22328,-449.83812 253.578967,-612.1938 C 76.084346,263.72961 296.31682,172.50633 525.92244,172.50633 Z" /></g></g><g
       id="g606"><g
         clip-path="url(#clipPath612)"
         id="g608"><path
           id="path614"
           style="fill:none;stroke:#82f61d;stroke-width:9.35049629;stroke-linecap:butt;stroke-linejoin:round;stroke-miterlimit:10;stroke-dasharray:none;stroke-opacity:1"
           d="m 490.9137,-1362.5063 c 302.80287,0 593.2445,120.3049 807.3584,334.4188 214.114,214.114 334.4189,504.55561 334.4189,807.35848 0,302.802873 -120.3049,593.24449 -334.4189,807.35845 -214.1139,214.11396 -504.55553,334.41881 -807.3584,334.41881 -302.80287,0 -593.24448,-120.30485 -807.35844,-334.41881 -214.11396,-214.11396 -334.41882,-504.555577 -334.41882,-807.35845 0,-302.80287 120.30486,-593.24448 334.41882,-807.35848 214.11396,-214.1139 504.55557,-334.4188 807.35844,-334.4188 z" /></g></g><g
       id="g616"><g
         clip-path="url(#clipPath622)"
         id="g618"><path
           id="path624"
           style="fill:none;stroke:#3ccbe3;stroke-width:5.52359104;stroke-linecap:butt;stroke-linejoin:round;stroke-miterlimit:10;stroke-dasharray:none;stroke-opacity:1"
           d="m 723.72995,-1961.8781 c 352.59535,0 690.79675,140.0876 940.11935,389.4102 249.3225,249.3225 389.4101,587.52392 389.4101,940.11927 0,352.59534 -140.0876,690.796753 -389.4101,940.11931 -249.3226,249.32256 -587.524,389.41017 -940.11935,389.41017 -352.59534,0 -690.796762,-140.08761 -940.11932,-389.41017 -249.32255,-249.322557 -389.41017,-587.52397 -389.41017,-940.11931 0,-352.59535 140.08762,-690.79677 389.41017,-940.11927 249.322558,-249.3226 587.52398,-389.4102 940.11932,-389.4102 z" /></g></g><g
       id="g626"><g
         clip-path="url(#clipPath632)"
         id="g628"><path
           id="path634"
           style="fill:none;stroke:#50eb2e;stroke-width:5.18735552;stroke-linecap:butt;stroke-linejoin:round;stroke-miterlimit:10;stroke-dasharray:none;stroke-opacity:1"
           d="m -148.20879,255.93411 c 246.686747,0 483.30305,98.00968 657.73692,272.44355 174.43387,174.43387 272.44355,411.05017 272.44355,657.73694 0,246.6867 -98.00968,483.303 -272.44355,657.7369 -174.43387,174.4339 -411.050173,272.4436 -657.73692,272.4436 -246.68674,0 -483.30305,-98.0097 -657.73692,-272.4436 -174.43387,-174.4339 -272.44359,-411.0502 -272.44359,-657.7369 0,-246.68677 98.00972,-483.30307 272.44359,-657.73694 174.43387,-174.43387 411.05018,-272.44355 657.73692,-272.44355 z" /></g></g><g
       id="g636"><g
         clip-path="url(#clipPath642)"
         id="g638"><path
           id="path644"
           style="fill:none;stroke:#b7202e;stroke-width:3.82028961;stroke-linecap:butt;stroke-linejoin:round;stroke-miterlimit:10;stroke-dasharray:none;stroke-opacity:1"
           d="m 842.48895,726.73625 c 215.07065,0 421.36145,85.44847 573.43945,237.52637 152.0779,152.07788 237.5263,358.36878 237.5263,573.43938 0,215.0707 -85.4484,421.3615 -237.5263,573.4394 -152.078,152.0779 -358.3688,237.5264 -573.43945,237.5264 -215.07064,0 -421.3615,-85.4485 -573.4394,-237.5264 C 116.97164,1959.0635 31.52317,1752.7727 31.52317,1537.702 c 0,-215.0706 85.44847,-421.3615 237.52638,-573.43938 152.0779,-152.0779 358.36876,-237.52637 573.4394,-237.52637 z" /></g></g><g
       id="g646"><g
         clip-path="url(#clipPath652)"
         id="g648"><path
           id="path654"
           style="fill:none;stroke:#e747a0;stroke-width:10.37395954;stroke-linecap:butt;stroke-linejoin:round;stroke-miterlimit:10;stroke-dasharray:none;stroke-opacity:1"
           d="m 603.79019,-2032.1066 c 340.05251,0 666.22311,135.1043 906.67661,375.5577 240.4534,240.4534 375.5577,566.624 375.5577,906.67656 0,340.05251 -135.1043,666.223122 -375.5577,906.67656 -240.4535,240.45343 -566.6241,375.55772 -906.67661,375.55772 -340.0525,0 -666.223122,-135.10429 -906.67656,-375.55772 -240.45343,-240.453438 -375.55772,-566.62405 -375.55772,-906.67656 0,-340.05256 135.10429,-666.22316 375.55772,-906.67656 240.453438,-240.4534 566.62406,-375.5577 906.67656,-375.5577 z" /></g></g><g
       id="g656"><g
         clip-path="url(#clipPath662)"
         id="g658"><path
           id="path664"
           style="fill:none;stroke:#ce50c8;stroke-width:11.54289627;stroke-linecap:butt;stroke-linejoin:round;stroke-miterlimit:10;stroke-dasharray:none;stroke-opacity:1"
           d="m 550.38632,-1428.7284 c 345.83367,0 677.54948,137.4012 922.09078,381.9425 244.5413,244.54135 381.9425,576.25712 381.9425,922.09079 0,345.83366 -137.4012,677.54944 -381.9425,922.09077 -244.5413,244.54134 -576.25711,381.94254 -922.09078,381.94254 -345.83366,0 -677.54944,-137.4012 -922.09077,-381.94254 -244.54133,-244.54133 -381.9425,-576.25711 -381.9425,-922.09077 0,-345.83367 137.40117,-677.54944 381.9425,-922.09079 244.54133,-244.5413 576.25711,-381.9425 922.09077,-381.9425 z" /></g></g><g
       id="g666"><g
         clip-path="url(#clipPath672)"
         id="g668"><path
           id="path674"
           style="fill:none;stroke:#2afe60;stroke-width:6.23968601;stroke-linecap:butt;stroke-linejoin:round;stroke-miterlimit:10;stroke-dasharray:none;stroke-opacity:1"
           d="m -421.20984,-88.790734 c 272.75309,0 534.37163,108.365951 727.23719,301.231514 192.86556,192.86556 301.23152,454.48411 301.23152,727.2372 0,272.75312 -108.36596,534.37162 -301.23152,727.23722 -192.86556,192.8655 -454.4841,301.2315 -727.23719,301.2315 -272.75309,0 -534.37164,-108.366 -727.23716,-301.2315 -192.8656,-192.8656 -301.2316,-454.4841 -301.2316,-727.23722 0,-272.75309 108.366,-534.37164 301.2316,-727.2372 192.86552,-192.865563 454.48407,-301.231514 727.23716,-301.231514 z" /></g></g><g
       id="g676"><g
         clip-path="url(#clipPath682)"
         id="g678"><path
           id="path684"
           style="fill:none;stroke:#0bcb09;stroke-width:3.65344;stroke-linecap:butt;stroke-linejoin:round;stroke-miterlimit:10;stroke-dasharray:none;stroke-opacity:1"
           d="m -187.30671,-1974.1889 c 366.59661,0 718.22773,145.6504 977.45068,404.8733 259.22293,259.223 404.87333,610.85408 404.87333,977.45069 0,366.59661 -145.6504,718.22773 -404.87333,977.45068 C 530.92102,644.80872 179.2899,790.4591 -187.30671,790.4591 c -366.59662,0 -718.22773,-145.65038 -977.45069,-404.87333 -259.2229,-259.22295 -404.8733,-610.85407 -404.8733,-977.45068 0,-366.59661 145.6504,-718.22769 404.8733,-977.45069 259.22296,-259.2229 610.85407,-404.8733 977.45069,-404.8733 z" /></g></g><g
       id="g686"><g
         clip-path="url(#clipPath692)"
         id="g688"><path
           id="path694"
           style="fill:none;stroke:#4cc6bf;stroke-width:4.72640181;stroke-linecap:butt;stroke-linejoin:round;stroke-miterlimit:10;stroke-dasharray:none;stroke-opacity:1"
           d="m -111.1463,-1095.5863 c 284.58866,0 557.55962,113.06826 758.79419,314.30283 201.23458,201.23457 314.30285,474.20554 314.30285,758.794199 0,284.588661 -113.06827,557.559621 -314.30285,758.794201 -201.23457,201.23457 -474.20553,314.30287 -758.79419,314.30287 -284.58867,0 -557.55963,-113.0683 -758.7942,-314.30287 -201.2346,-201.23458 -314.3029,-474.20554 -314.3029,-758.794201 0,-284.588659 113.0683,-557.559629 314.3029,-758.794199 201.23457,-201.23457 474.20553,-314.30283 758.7942,-314.30283 z" /></g></g><g
       id="g696"><g
         clip-path="url(#clipPath702)"
         id="g698"><path
           id="path704"
           style="fill:none;stroke:#a23543;stroke-width:7.83884525;stroke-linecap:butt;stroke-linejoin:round;stroke-miterlimit:10;stroke-dasharray:none;stroke-opacity:1"
           d="m 674.20796,440.13515 c 248.071,0 486.01504,98.55966 661.42774,273.97235 175.4127,175.41268 273.9723,413.3567 273.9723,661.4277 0,248.071 -98.5596,486.0151 -273.9723,661.4278 -175.4127,175.4127 -413.35674,273.9723 -661.42774,273.9723 -248.07101,0 -486.01506,-98.5596 -661.427745,-273.9723 -175.412685,-175.4127 -273.972345,-413.3568 -273.972345,-661.4278 0,-248.071 98.55966,-486.01502 273.972345,-661.4277 C 188.1929,538.69481 426.13695,440.13515 674.20796,440.13515 Z" /></g></g><g
       id="g706"><g
         clip-path="url(#clipPath712)"
         id="g708"><path
           id="path714"
           style="fill:none;stroke:#e79519;stroke-width:4.2356596;stroke-linecap:butt;stroke-linejoin:round;stroke-miterlimit:10;stroke-dasharray:none;stroke-opacity:1"
           d="m 530.41627,-1296.4868 c 215.36092,0 421.93021,85.5638 574.21333,237.8469 152.2832,152.28319 237.847,358.85248 237.847,574.2134 0,215.36092 -85.5638,421.930205 -237.847,574.213372 C 952.34648,242.07004 745.77719,327.63384 530.41627,327.63384 c -215.36092,0 -421.9302,-85.5638 -574.21337,-237.846968 -152.28317,-152.283167 -237.84697,-358.852452 -237.84697,-574.213372 0,-215.36092 85.5638,-421.93021 237.84697,-574.2134 152.28317,-152.2831 358.85245,-237.8469 574.21337,-237.8469 z" /></g></g><g
       id="g716"><g
         clip-path="url(#clipPath722)"
         id="g718"><path
           id="path724"
           style="fill:none;stroke:#7fbf11;stroke-width:5.9046011;stroke-linecap:butt;stroke-linejoin:round;stroke-miterlimit:10;stroke-dasharray:none;stroke-opacity:1"
           d="m 659.09505,-438.56749 c 363.96955,0 713.08085,144.60663 970.44625,401.971972 257.3653,257.365338 401.9719,606.476638 401.9719,970.446198 0,363.96952 -144.6066,713.08082 -401.9719,970.44622 -257.3654,257.3653 -606.4767,401.9719 -970.44625,401.9719 -363.96955,0 -713.080851,-144.6066 -970.44619,-401.9719 -257.36534,-257.3654 -401.97198,-606.4767 -401.97198,-970.44622 0,-363.96956 144.60664,-713.08086 401.97198,-970.446198 C -53.985801,-293.96086 295.1255,-438.56749 659.09505,-438.56749 Z" /></g></g><g
       id="g726"><g
         clip-path="url(#clipPath732)"
         id="g728"><path
           id="path734"
           style="fill:none;stroke:#325c9b;stroke-width:4.46443033;stroke-linecap:butt;stroke-linejoin:round;stroke-miterlimit:10;stroke-dasharray:none;stroke-opacity:1"
           d="m -93.172488,-1217.9338 c 261.880338,0 513.069988,104.0461 698.247348,289.22349 185.17736,185.17736 289.22353,436.36701 289.22353,698.24735 0,261.880338 -104.04617,513.06999 -289.22353,698.24735 C 419.8975,652.96175 168.70785,757.00791 -93.172488,757.00791 -355.05283,757.00791 -606.24248,652.96175 -791.41984,467.78439 -976.5972,282.60703 -1080.6434,31.417378 -1080.6434,-230.46296 c 0,-261.88034 104.0462,-513.06999 289.22356,-698.24735 185.17736,-185.17739 436.36701,-289.22349 698.247352,-289.22349 z" /></g></g><g
       id="g736"><g
         clip-path="url(#clipPath742)"
         id="g738"><path
           id="path744"
           style="fill:none;stroke:#c4a949;stroke-width:3.2861495;stroke-linecap:butt;stroke-linejoin:round;stroke-miterlimit:10;stroke-dasharray:none;stroke-opacity:1"
           d="m -47.91725,-1486.8185 c 289.60062,0 567.37894,115.0596 772.1575,319.8381 204.77856,204.77861 319.83815,482.55693 319.83815,772.15755 0,289.60062 -115.05959,567.37893 -319.83815,772.1575 -204.77856,204.77856 -482.55688,319.83811 -772.1575,319.83811 -289.60062,0 -567.37894,-115.05955 -772.1575,-319.83811 -204.77855,-204.77857 -319.83815,-482.55688 -319.83815,-772.1575 0,-289.60062 115.0596,-567.37894 319.83815,-772.15755 204.77856,-204.7785 482.55688,-319.8381 772.1575,-319.8381 z" /></g></g><g
       id="g746"><g
         clip-path="url(#clipPath752)"
         id="g748"><path
           id="path754"
           style="fill:none;stroke:#77f037;stroke-width:12.97353077;stroke-linecap:butt;stroke-linejoin:round;stroke-miterlimit:10;stroke-dasharray:none;stroke-opacity:1"
           d="m -219.01256,-379.77114 c 386.49141,0 757.20517,153.55466 1030.49587,426.845358 C 1084.774,320.36491 1238.3287,691.07867 1238.3287,1077.5701 c 0,386.4914 -153.5547,757.2051 -426.84539,1030.4958 -273.2907,273.2907 -644.00446,426.8454 -1030.49587,426.8454 -386.49141,0 -757.20516,-153.5547 -1030.49584,-426.8454 -273.2907,-273.2907 -426.8454,-644.0044 -426.8454,-1030.4958 0,-386.49143 153.5547,-757.20519 426.8454,-1030.495882 273.29068,-273.290698 644.00443,-426.845358 1030.49584,-426.845358 z" /></g></g><g
       id="g756"><g
         clip-path="url(#clipPath762)"
         id="g758"><path
           id="path764"
           style="fill:none;stroke:#f63267;stroke-width:6.69296551;stroke-linecap:butt;stroke-linejoin:round;stroke-miterlimit:10;stroke-dasharray:none;stroke-opacity:1"
           d="m -381.73013,217.41396 c 232.68147,0 455.864235,92.44533 620.39488,256.97597 164.53065,164.53064 256.97597,387.71341 256.97597,620.39487 0,232.6815 -92.44532,455.8642 -256.97597,620.3949 -164.530645,164.5306 -387.71341,256.976 -620.39488,256.976 -232.68147,0 -455.86423,-92.4454 -620.39487,-256.976 -164.5307,-164.5307 -256.976,-387.7134 -256.976,-620.3949 0,-232.68146 92.4453,-455.86423 256.976,-620.39487 164.53064,-164.53064 387.7134,-256.97597 620.39487,-256.97597 z" /></g></g><g
       id="g766"><g
         clip-path="url(#clipPath772)"
         id="g768"><path
           id="path774"
           style="fill:none;stroke:#f73105;stroke-width:7.57449627;stroke-linecap:butt;stroke-linejoin:round;stroke-miterlimit:10;stroke-dasharray:none;stroke-opacity:1"
           d="m -317.73515,-2135.0195 c 392.270506,0 768.52744,155.8507 1045.90457,433.2279 277.37718,277.3771 433.22788,653.634 433.22788,1045.90455 0,392.2705 -155.8507,768.52743 -433.22788,1045.90457 -277.37713,277.37713 -653.634064,433.22786 -1045.90457,433.22786 -392.2705,0 -768.52745,-155.85073 -1045.90455,-433.22786 -277.3772,-277.37714 -433.2279,-653.63407 -433.2279,-1045.90457 0,-392.27055 155.8507,-768.52745 433.2279,-1045.90455 277.3771,-277.3772 653.63405,-433.2279 1045.90455,-433.2279 z" /></g></g><g
       id="g776"><g
         clip-path="url(#clipPath782)"
         id="g778"><path
           id="path784"
           style="fill:none;stroke:#d30e5b;stroke-width:5.8388319;stroke-linecap:butt;stroke-linejoin:round;stroke-miterlimit:10;stroke-dasharray:none;stroke-opacity:1"
           d="m -279.36103,-1732.9778 c 293.642737,0 575.29816,116.6654 782.93493,324.3022 207.63676,207.6368 324.30226,489.2922 324.30226,782.93494 0,293.64273 -116.6655,575.298154 -324.30226,782.93492 -207.63677,207.63677 -489.292193,324.30227 -782.93493,324.30227 -293.64273,0 -575.29815,-116.6655 -782.93497,-324.30227 -207.6367,-207.636766 -324.3022,-489.29219 -324.3022,-782.93492 0,-293.64274 116.6655,-575.29814 324.3022,-782.93494 207.63682,-207.6368 489.29224,-324.3022 782.93497,-324.3022 z" /></g></g><g
       id="g786"><g
         clip-path="url(#clipPath792)"
         id="g788"><path
           id="path794"
           style="fill:none;stroke:#b624b3;stroke-width:10.71218681;stroke-linecap:butt;stroke-linejoin:round;stroke-miterlimit:10;stroke-dasharray:none;stroke-opacity:1"
           d="m -244.34425,-1740.6127 c 328.320588,0 643.23822,130.4432 875.39593,362.6009 232.15772,232.1577 362.60087,547.07535 362.60087,875.39594 0,328.32059 -130.44315,643.23822 -362.60087,875.39594 -232.15771,232.15771 -547.075342,362.60087 -875.39593,362.60087 -328.32059,0 -643.23822,-130.44316 -875.39595,-362.60087 -232.1577,-232.15772 -362.6009,-547.07535 -362.6009,-875.39594 0,-328.32059 130.4432,-643.23824 362.6009,-875.39594 232.15773,-232.1577 547.07536,-362.6009 875.39595,-362.6009 z" /></g></g><g
       id="g796"><g
         clip-path="url(#clipPath802)"
         id="g798"><path
           id="path804"
           style="fill:none;stroke:#d2305a;stroke-width:6.5052166;stroke-linecap:butt;stroke-linejoin:round;stroke-miterlimit:10;stroke-dasharray:none;stroke-opacity:1"
           d="m -295.17674,-1405.9074 c 227.046823,0 444.82496,90.2067 605.37131,250.753 160.54635,160.54636 250.75301,378.3245 250.75301,605.37132 0,227.04683 -90.20666,444.82497 -250.75301,605.371314 C 149.64822,216.13458 -68.129917,306.34124 -295.17674,306.34124 c -227.04682,0 -444.82496,-90.20666 -605.37131,-250.753006 -160.54635,-160.546344 -250.75305,-378.324484 -250.75305,-605.371314 0,-227.04682 90.2067,-444.82496 250.75305,-605.37132 160.54635,-160.5463 378.32449,-250.753 605.37131,-250.753 z" /></g></g><g
       id="g806"><g
         clip-path="url(#clipPath812)"
         id="g808"><path
           id="path814"
           style="fill:none;stroke:#cf3e4f;stroke-width:11.05640697;stroke-linecap:butt;stroke-linejoin:round;stroke-miterlimit:10;stroke-dasharray:none;stroke-opacity:1"
           d="m -261.22562,-1593.5128 c 239.522924,0 469.26785,95.1635 638.63614,264.5318 169.36828,169.3683 264.53175,399.1132 264.53175,638.63613 0,239.52292 -95.16347,469.26785 -264.53175,638.636135 C 208.04223,117.65955 -21.702696,212.82301 -261.22562,212.82301 c -239.52292,0 -469.26786,-95.16346 -638.63614,-264.531745 C -1069.23,-221.07702 -1164.3935,-450.82195 -1164.3935,-690.34487 c 0,-239.52293 95.1635,-469.26783 264.53174,-638.63613 169.36828,-169.3683 399.11322,-264.5318 638.63614,-264.5318 z" /></g></g><g
       id="g816" /></g></svg>